<svg width="204" height="72" viewBox="0 0 204 72" fill="none" xmlns="http://www.w3.org/2000/svg">
<g id="Elements" clip-path="url(#clip0_1_36413)">
<path id="Vector" d="M3.58612 52.6987C5.08119 48.6732 8.61472 48.4446 11.4853 47.752C27.9968 43.7186 44.4178 39.1109 61.1065 36.1862C95.2323 30.1712 129.503 25.1272 163.716 19.6466C166.574 19.2638 169.381 18.5673 172.087 17.5697C159.803 13.9257 146.894 12.7856 134.768 9.10779L135.024 6.2948C137.231 5.70465 139.502 5.38477 141.787 5.34218C159.322 7.28229 176.845 9.30383 194.312 11.6113C200.812 12.4685 202.422 16.4232 198.493 21.7658C195.406 25.8658 191.892 29.6255 188.01 32.9814C179.847 40.1998 171.463 47.1765 162.987 54.0207C157.358 58.5281 156.621 58.5925 148.775 58.6361C155.481 45.3214 169.129 39.9925 178.305 28.9915C176.127 28.7939 173.936 28.7639 171.753 28.9018C119.1 36.8779 66.4562 44.8666 13.8198 52.8681C10.6112 53.3694 7.24995 55.1088 3.58612 52.6987Z" fill="#5300CC"/>
</g>
<defs>
<clipPath id="clip0_1_36413">
<rect width="54.16" height="199.44" fill="white" transform="translate(199.195 0.182617) rotate(85.0035)"/>
</clipPath>
</defs>
</svg>
