<svg width="202" height="62" viewBox="0 0 202 62" fill="none" xmlns="http://www.w3.org/2000/svg">
<g id="Elements" clip-path="url(#clip0_1_36420)">
<path id="Vector" d="M200.545 26.1107C198.572 29.9244 195.037 29.7215 192.103 30.0599C175.224 32.0549 158.364 34.631 141.444 35.504C106.84 37.3235 72.2095 38.1614 37.5842 39.4399C34.7008 39.4722 31.8297 39.822 29.0229 40.4832C40.7725 45.5943 53.4463 48.296 65.0353 53.4215L64.4391 56.1825C62.1763 56.4998 59.8834 56.541 57.6107 56.3054C40.4412 52.2468 23.2946 48.1089 6.23762 43.6939C-0.109211 42.0525 -1.22677 37.9312 3.32352 33.1063C6.8857 29.4122 10.8311 26.1078 15.0929 23.2491C24.0726 17.0772 33.2432 11.1721 42.4889 5.40964C48.6242 1.62041 49.3637 1.6461 57.1568 2.55727C48.8812 14.9574 34.6866 18.5867 24.2399 28.3898C26.3784 28.851 28.5492 29.1472 30.7331 29.2758C83.9644 27.7634 137.189 26.2374 190.408 24.6978C193.654 24.5904 197.202 23.2728 200.545 26.1107Z" fill="#5300CC"/>
</g>
<defs>
<clipPath id="clip0_1_36420">
<rect width="54.16" height="199.44" fill="white" transform="translate(0 54.4434) rotate(-88.01)"/>
</clipPath>
</defs>
</svg>
