<svg width="86" height="215" viewBox="0 0 86 215" fill="none" xmlns="http://www.w3.org/2000/svg">
<g id="Elements" clip-path="url(#clip0_1_36410)">
<path id="Vector" d="M56.0736 211.751C53.9092 212.785 51.6967 214.685 49.5804 214.685C36.1371 214.155 22.6457 213.795 9.32257 212.087C0.49663 210.981 -1.81206 205.57 2.3003 197.85C8.45681 186.451 15.1665 175.341 21.5394 164.182C28.5857 170.795 28.201 176.495 18.6776 196.023C21.2558 195.46 23.7881 194.704 26.253 193.762C57.5165 178.154 87.0726 133.015 69.541 86.6242C62.3263 67.3851 53.7409 48.9396 40.2254 33.1875C31.1109 22.5579 20.7458 13.4675 7.32651 8.36909C5.37933 7.26898 3.58448 5.91879 1.98766 4.35294C8.50491 -1.89978 14.9741 -0.456863 20.5534 2.93404C28.1747 7.44788 35.2585 12.8131 41.6683 18.9266C65.3056 42.5999 80.5863 73.3301 85.1968 106.465C90.2471 140.133 67.6652 180.295 35.8004 196.311C31.5918 198.5 26.9985 200.448 21.0584 203.213C33.1791 208.191 45.444 203.358 55.6407 208.624L56.0736 211.751Z" fill="#5300CC"/>
</g>
<defs>
<clipPath id="clip0_1_36410">
<rect width="214.684" height="85.59" fill="white" transform="matrix(0 -1 1 0 0.328125 214.685)"/>
</clipPath>
</defs>
</svg>
