<svg width="207" height="97" viewBox="0 0 207 97" fill="none" xmlns="http://www.w3.org/2000/svg">
<g id="Elements" clip-path="url(#clip0_1_36415)">
<path id="Vector" d="M4.1365 35.3608C6.76942 31.9685 10.209 32.8095 13.1552 33.0091C30.1165 34.1102 47.1636 34.6363 63.9617 36.8483C98.3214 41.3384 132.528 46.7984 166.811 51.8245C169.652 52.3159 172.539 52.4929 175.419 52.352C164.792 45.1937 152.819 40.237 142.353 33.0936L143.44 30.4866C145.723 30.5852 147.985 30.9607 150.177 31.6048C166.325 38.7117 182.436 45.8924 198.409 53.3293C204.353 56.0952 204.704 60.3508 199.353 64.2699C195.18 67.2563 190.701 69.7899 185.991 71.8278C176.04 76.2677 165.95 80.4107 155.812 84.3997C149.091 87.0127 148.369 86.8532 140.87 84.543C151.259 73.8505 165.876 72.8573 177.928 65.1126C175.909 64.271 173.828 63.5858 171.704 63.063C119.082 54.8908 66.4636 46.733 13.8489 38.5897C10.6376 38.1063 6.90951 38.7582 4.1365 35.3608Z" fill="#5300CC"/>
</g>
<defs>
<clipPath id="clip0_1_36415">
<rect width="54.16" height="199.44" fill="white" transform="translate(206.494 43.8896) rotate(102.445)"/>
</clipPath>
</defs>
</svg>
