<svg width="208" height="94" viewBox="0 0 208 94" fill="none" xmlns="http://www.w3.org/2000/svg">
<g id="Elements" clip-path="url(#clip0_1_36418)">
<path id="Vector" d="M203.368 58.8442C200.786 62.2754 197.334 61.4859 194.385 61.3303C177.409 60.4825 160.356 60.211 143.527 58.25C109.104 54.2733 74.8194 49.3245 40.4658 44.8108C37.6173 44.3618 34.728 44.228 31.8503 44.4118C42.583 51.4107 54.6288 56.1882 65.2008 63.1745L64.1525 65.7974C61.8685 65.7329 59.6008 65.3912 57.3992 64.7799C41.147 57.9148 24.9305 50.9754 8.84867 43.7778C2.86444 41.101 2.44981 36.851 7.74099 32.8525C11.8693 29.8042 16.3105 27.204 20.9894 25.096C30.8726 20.508 40.8996 16.2149 50.9767 12.075C57.658 9.362 58.3829 9.51067 65.9149 11.7087C55.6873 22.5551 41.0863 23.7664 29.151 31.6901C31.1827 32.5015 33.2737 33.1555 35.4055 33.6466C88.1436 41.0323 140.878 48.4037 193.608 55.7606C196.826 56.196 200.544 55.4886 203.368 58.8442Z" fill="#5300CC"/>
</g>
<defs>
<clipPath id="clip0_1_36418">
<rect width="54.16" height="199.44" fill="white" transform="translate(0.90625 53.3369) rotate(-78.4103)"/>
</clipPath>
</defs>
</svg>
