<svg width="111" height="129" viewBox="0 0 111 129" fill="none" xmlns="http://www.w3.org/2000/svg">
<g id="Logo icon 1">
<g id="Logo">
<g id="Group_308">
<path id="Path_408" d="M22.236 117.469C24.257 117.301 26.2781 116.964 28.2149 116.458C30.4044 115.953 43.7096 113.427 66.0254 91.2795C71.2465 85.9742 75.9623 80.2479 80.0886 74.0163C83.1202 68.6268 84.1307 63.1531 81.9412 61.4689C78.0675 58.6058 74.1939 62.2268 69.6465 67.7005C65.5202 72.6689 59.7939 81.2584 54.9096 86.8163C37.2254 106.943 31.9202 109.974 26.9517 112.416C25.2675 113.258 23.4991 113.932 21.7307 114.437C20.1307 114.943 18.6991 115.279 17.5202 115.532C16.3412 115.785 15.3307 115.953 14.7412 116.037C14.0675 116.122 13.7307 116.122 13.7307 116.122L13.6465 117.301C13.6465 117.301 14.0675 117.385 14.7412 117.469C15.4149 117.553 16.4254 117.637 17.6886 117.637C19.2044 117.722 20.7202 117.637 22.236 117.469Z" fill="#BA99EB"/>
<path id="Path_409" d="M87.4998 75.5324C81.0998 80.9219 77.0577 88.7535 68.384 97.764C48.4261 118.564 38.2366 121.848 36.1314 122.606C34.2787 123.28 32.3419 123.869 30.3208 124.29C28.5524 124.711 26.9524 124.964 25.6893 125.132C24.4261 125.301 23.3314 125.385 22.6577 125.385C21.984 125.385 21.563 125.385 21.563 125.385L21.3945 126.648C21.3945 126.648 21.8156 126.732 22.4893 126.901C23.2472 127.069 24.2577 127.238 25.6893 127.406C27.3735 127.575 28.9735 127.659 30.6577 127.659C32.8472 127.659 35.0366 127.49 37.1419 127.153C39.4998 126.817 51.6261 127.659 76.2156 106.438C77.3945 105.427 92.6366 90.3535 97.2682 82.8587C99.8787 78.564 100.468 73.764 98.6156 72.164C95.6682 69.5534 91.7945 71.9113 87.4998 75.5324Z" fill="#110F42"/>
<path id="Path_410" d="M108.215 41.0894C106.53 39.5736 103.92 39.7421 102.404 41.3421L85.8146 59.8684C84.2989 61.5526 84.3831 64.0789 85.9831 65.6789C87.6673 67.1947 90.1936 67.1105 91.7936 65.5105L91.8778 65.4263L108.467 46.8999C109.983 45.2157 109.899 42.6052 108.215 41.0894Z" fill="#5300CC"/>
<path id="Path_411" d="M51.9635 26.6898L68.553 8.16353C70.0688 6.47932 69.9004 3.8688 68.2162 2.35301C66.6162 0.837219 64.0899 1.00564 62.5741 2.52143L62.4899 2.60564L45.9004 21.132C44.3846 22.8162 44.553 25.4267 46.2372 26.8583C47.9214 28.4583 50.4477 28.3741 51.9635 26.6898Z" fill="#5300CC"/>
<path id="Path_412" d="M51.7943 81.174C59.9627 71.9109 67.6259 62.2267 74.7838 52.2056C78.068 54.5635 81.689 56.4161 85.5627 57.6793L99.289 42.353C96.5943 35.4477 92.3838 29.2161 87.0785 23.9951C81.7732 18.353 75.289 14.0582 68.1311 11.2793L54.068 27.0267C55.7522 31.2372 57.9417 35.1109 60.7206 38.6477C54.7417 49.8477 48.1732 60.7109 40.9311 71.153C35.5417 78.9003 29.3101 86.0582 22.489 92.5425C20.8048 94.0582 13.1417 99.953 11.289 99.1109C4.04692 95.7425 12.2996 78.7319 13.4785 76.1214C14.6575 73.4267 15.7522 71.153 16.6785 69.3003C17.6048 67.4477 18.4469 65.9319 18.9522 65.0056C19.4575 63.9951 19.7943 63.4898 19.7943 63.4898L18.5311 62.5635C18.5311 62.5635 18.1101 63.0688 17.3522 63.9109C16.5943 64.753 15.5838 66.1003 14.2364 67.8688C12.889 69.6372 -10.4373 104.332 9.60482 107.953C19.289 109.637 37.8153 97.6793 51.7943 81.174Z" fill="#5300CC"/>
</g>
</g>
</g>
</svg>
